<svg xmlns="http://www.w3.org/2000/svg" version="1.1" xmlns:xlink="http://www.w3.org/1999/xlink" xmlns:svgjs="http://svgjs.dev/svgjs" width="1500" height="1500" viewBox="0 0 1500 1500"><rect width="1500" height="1500" fill="#000000"></rect><g transform="matrix(0.6666666666666666,0,0,0.6666666666666666,249.39393939393938,627.6632035929027)"><svg viewBox="0 0 396 97" data-background-color="#111111" preserveAspectRatio="xMidYMid meet" height="367" width="1500" xmlns="http://www.w3.org/2000/svg" xmlns:xlink="http://www.w3.org/1999/xlink"><g id="tight-bounds" transform="matrix(1,0,0,1,0.2400000000000091,0.0013729624867551138)"><svg viewBox="0 0 395.52 96.99725407502646" height="96.99725407502646" width="395.52"><g><svg viewBox="0 0 397.49759999999986 97.48224034540156" height="96.99725407502646" width="395.52"><g><svg viewBox="0 0 397.49759999999986 97.48224034540156" height="97.48224034540156" width="397.49759999999986"><g id="textblocktransform"><svg viewBox="0 0 397.49759999999986 97.48224034540156" height="97.48224034540156" width="397.49759999999986" id="textblock"><g><rect width="397.49759999999986" height="5.224527978814514" x="0" y="64.0883276765062" fill="#ffffff" opacity="1" stroke-width="0" stroke="transparent" fill-opacity="1" class="rect-yte-0" data-fill-palette-color="primary" rx="1%" id="yte-0" data-palette-color="#ff851b"></rect></g><g transform="matrix(1,0,0,1,0.9887999999999693,0)"><svg viewBox="0 0 395.5199999999999 57.933779010363445" height="57.933779010363445" width="395.5199999999999"><g transform="matrix(1,0,0,1,0,0)"><svg width="395.5199999999999" viewBox="3.69 -37.55 334.49 49" height="57.933779010363445" data-palette-color="#ff851b"><path d="M44.43-32.3L44.43 0 38.04 0 38.04-20.85 26.78-1.05Q26.37-0.29 25.62 0.1 24.88 0.49 24.02 0.49L24.02 0.49Q23.19 0.49 22.47 0.1 21.75-0.29 21.34-1.05L21.34-1.05 10.03-20.85 10.03 0 3.69 0 3.69-32.3Q3.69-33.4 4.33-34.25 4.98-35.11 6.03-35.4L6.03-35.4Q6.54-35.52 7.06-35.49 7.57-35.45 8.04-35.27 8.52-35.08 8.91-34.75 9.3-34.42 9.57-33.96L9.57-33.96 24.02-8.84 38.48-33.96Q39.04-34.89 40.03-35.28 41.02-35.67 42.09-35.4L42.09-35.4Q43.12-35.11 43.77-34.25 44.43-33.4 44.43-32.3L44.43-32.3ZM57.54-37.55L57.54-31.81 51.19-31.81 51.19-37.55 57.54-37.55ZM57.54-26.39L57.54 0 51.19 0 51.19-26.39 57.54-26.39ZM92.87-14.65L92.87 0 86.52 0 86.52-14.65Q86.52-15.89 86.09-16.88 85.66-17.87 84.93-18.58 84.2-19.29 83.21-19.67 82.22-20.04 81.07-20.04L81.07-20.04 69.97-20.04 69.97 0 63.62 0 63.62-23.24Q63.62-23.9 63.86-24.48 64.11-25.05 64.55-25.48 64.99-25.9 65.57-26.15 66.16-26.39 66.82-26.39L66.82-26.39 81.12-26.39Q82.32-26.39 83.65-26.12 84.98-25.85 86.29-25.26 87.59-24.66 88.78-23.74 89.96-22.83 90.88-21.52 91.79-20.21 92.33-18.51 92.87-16.8 92.87-14.65L92.87-14.65ZM127.39-37.55L127.39-8.91Q127.39-7.28 126.97-5.97 126.56-4.66 125.87-3.67 125.19-2.69 124.28-1.99 123.38-1.29 122.39-0.85 121.4-0.42 120.39-0.21 119.38 0 118.47 0L118.47 0 107.02 0Q105.39 0 104.09-0.42 102.8-0.83 101.81-1.53 100.82-2.22 100.13-3.13 99.43-4.03 98.99-5.02 98.55-6.01 98.34-7.02 98.14-8.03 98.14-8.91L98.14-8.91 98.14-17.5Q98.14-19.95 99.03-21.64 99.92-23.34 101.25-24.4 102.58-25.46 104.14-25.93 105.71-26.39 107.02-26.39L107.02-26.39 118.47-26.39 118.47-20.04 107.07-20.04Q105.8-20.04 105.14-19.4 104.48-18.75 104.48-17.5L104.48-17.5 104.48-8.96Q104.48-7.67 105.13-7.01 105.78-6.35 107.02-6.35L107.02-6.35 118.47-6.35Q119.77-6.35 120.4-7.01 121.04-7.67 121.04-8.91L121.04-8.91 121.04-37.55 127.39-37.55ZM178.41-14.65L178.41-8.91 175.55-8.91 175.5-8.84Q175.5-7.28 175.1-6.03 174.69-4.79 174.04-3.85 173.38-2.91 172.5-2.22 171.62-1.54 170.68-1.11 169.74-0.68 168.77-0.49 167.81-0.29 166.96-0.29L166.96-0.29 158.34-0.29Q156.07-0.29 154.47-1.15 152.87-2 151.83-3.27 150.79-4.54 150.29-6.03 149.79-7.52 149.74-8.79L149.74-8.79 149.74-11.74Q149.74-13.67 150.29-15.08 150.84-16.48 151.75-17.5L151.75-17.5Q150.7-18.82 150.22-20.36 149.74-21.9 149.74-23.24L149.74-23.24Q149.74-25.61 150.6-27.25 151.45-28.88 152.75-29.9 154.04-30.91 155.54-31.36 157.04-31.81 158.34-31.81L158.34-31.81 172.64-31.81 172.64-26.1 158.34-26.1Q157.68-26.1 157.15-25.89 156.63-25.68 156.25-25.29 155.87-24.9 155.68-24.38 155.48-23.85 155.51-23.24L155.51-23.24Q155.51-21.85 156.29-21.11 157.07-20.36 158.34-20.36L158.34-20.36 166.96-20.36 166.96-14.65 158.34-14.65Q156.99-14.65 156.25-13.82 155.51-12.99 155.51-11.74L155.51-11.74 155.51-9.01Q155.51-7.69 156.3-6.87 157.09-6.05 158.34-6.05L158.34-6.05 166.91-6.05Q168.25-6.05 169.02-6.86 169.79-7.67 169.79-8.91L169.79-8.91Q169.79-9.96 170.15-10.99 170.52-12.01 171.25-12.83 171.98-13.65 173.05-14.15 174.11-14.65 175.5-14.65L175.5-14.65 178.41-14.65ZM235.16-8.91L235.16-7.69Q235.16-6.52 234.76-5.18 234.36-3.83 233.44-2.69 232.53-1.54 231.06-0.77 229.6 0 227.47 0L227.47 0 203.38 0Q202.69 0 202.11-0.24 201.52-0.49 201.09-0.92 200.67-1.34 200.42-1.93 200.18-2.51 200.18-3.2L200.18-3.2 200.18-31.81Q200.18-32.47 200.42-33.06 200.67-33.64 201.09-34.08 201.52-34.52 202.11-34.77 202.69-35.01 203.38-35.01L203.38-35.01 224.62-35.01Q225.79-35.01 227.13-34.59 228.47-34.18 229.63-33.26 230.79-32.35 231.56-30.88 232.33-29.42 232.33-27.29L232.33-27.29 232.33-26.1Q232.33-24.41 231.77-22.47 231.21-20.53 229.96-18.8L229.96-18.8Q231.04-18.14 231.98-17.21 232.92-16.28 233.63-15.06 234.33-13.84 234.75-12.3 235.16-10.77 235.16-8.91L235.16-8.91ZM228.82-7.74L228.82-8.91Q228.82-10.16 228.42-11.15 228.03-12.13 227.33-12.84 226.62-13.55 225.62-13.93 224.62-14.31 223.37-14.31L223.37-14.31 209.06-14.31 209.06-20.7 220.51-20.7Q221.76-20.7 222.76-21.08 223.76-21.46 224.47-22.17 225.18-22.88 225.56-23.86 225.93-24.85 225.93-26.1L225.93-26.1 225.93-27.29Q225.93-28.66 224.62-28.66L224.62-28.66 206.53-28.66 206.53-6.35 227.47-6.35Q227.64-6.35 227.89-6.37 228.13-6.4 228.33-6.52 228.52-6.64 228.67-6.93 228.82-7.23 228.82-7.74L228.82-7.74ZM268.68-17.5L268.68-8.91Q268.68-7.28 268.27-5.97 267.85-4.66 267.17-3.67 266.48-2.69 265.58-1.99 264.68-1.29 263.69-0.85 262.7-0.42 261.69-0.21 260.67 0 259.77 0L259.77 0 248.32 0Q247 0 245.44-0.46 243.88-0.93 242.55-1.99 241.22-3.05 240.32-4.75 239.43-6.45 239.43-8.91L239.43-8.91 239.43-17.5Q239.43-19.95 240.32-21.64 241.22-23.34 242.55-24.4 243.88-25.46 245.44-25.93 247-26.39 248.32-26.39L248.32-26.39 259.77-26.39Q262.21-26.39 263.92-25.51 265.63-24.63 266.68-23.3 267.73-21.97 268.21-20.41 268.68-18.85 268.68-17.5L268.68-17.5ZM262.33-8.91L262.33-17.46Q262.33-18.77 261.67-19.41 261.02-20.04 259.77-20.04L259.77-20.04 248.37-20.04Q247.1-20.04 246.44-19.4 245.78-18.75 245.78-17.5L245.78-17.5 245.78-8.91Q245.78-7.67 246.44-7.01 247.1-6.35 248.37-6.35L248.37-6.35 259.77-6.35Q261.06-6.35 261.7-7.01 262.33-7.67 262.33-8.91L262.33-8.91ZM303.03-37.55L303.03-8.91Q303.03-7.28 302.61-5.97 302.2-4.66 301.52-3.67 300.83-2.69 299.93-1.99 299.03-1.29 298.04-0.85 297.05-0.42 296.03-0.21 295.02 0 294.12 0L294.12 0 282.67 0Q281.03 0 279.74-0.42 278.44-0.83 277.46-1.53 276.47-2.22 275.77-3.13 275.08-4.03 274.64-5.02 274.2-6.01 273.99-7.02 273.78-8.03 273.78-8.91L273.78-8.91 273.78-17.5Q273.78-19.95 274.67-21.64 275.56-23.34 276.89-24.4 278.22-25.46 279.79-25.93 281.35-26.39 282.67-26.39L282.67-26.39 294.12-26.39 294.12-20.04 282.72-20.04Q281.45-20.04 280.79-19.4 280.13-18.75 280.13-17.5L280.13-17.5 280.13-8.96Q280.13-7.67 280.78-7.01 281.42-6.35 282.67-6.35L282.67-6.35 294.12-6.35Q295.41-6.35 296.05-7.01 296.68-7.67 296.68-8.91L296.68-8.91 296.68-37.55 303.03-37.55ZM338.18-26.39L338.18 2.54Q338.18 4.17 337.77 5.48 337.35 6.79 336.67 7.78 335.99 8.76 335.08 9.46 334.18 10.16 333.19 10.6 332.2 11.04 331.2 11.24 330.2 11.45 329.3 11.45L329.3 11.45 317.85 11.45 317.85 5.1 329.3 5.1Q330.57 5.1 331.2 4.44 331.84 3.78 331.84 2.54L331.84 2.54 331.84-26.39 338.18-26.39ZM329.3-6.35L329.3 0 317.85 0Q316.48 0 314.93-0.46 313.38-0.93 312.04-1.99 310.69-3.05 309.81-4.75 308.93-6.45 308.93-8.91L308.93-8.91 308.93-26.39 315.28-26.39 315.28-8.91Q315.28-7.67 315.94-7.01 316.6-6.35 317.89-6.35L317.89-6.35 329.3-6.35Z" opacity="1" transform="matrix(1,0,0,1,0,0)" fill="#ffffff" class="wordmark-text-0" data-fill-palette-color="primary" id="text-0"></path></svg></g></svg></g><g transform="matrix(1,0,0,1,0,75.46740432146346)"><svg viewBox="0 0 395.5199999999999 22.014836023938106" height="22.014836023938106" width="395.5199999999999"><g transform="matrix(1,0,0,1,0,0)"><svg width="395.5199999999999" viewBox="4 -35.01 637.76 35.5" height="22.014836023938106" data-palette-color="url(#8512a29f-3509-4314-83ff-055aa3ffd6f9)"></svg></g></svg></g></svg></g></svg></g><g></g></svg></g><defs></defs><mask id="d1364de0-18cd-4698-847d-7d9413fcd5f9"><g id="SvgjsG1722"><svg viewBox="0 0 395.52 96.99725407502646" height="96.99725407502646" width="395.52"><g><svg viewBox="0 0 397.49759999999986 97.48224034540156" height="96.99725407502646" width="395.52"><g><svg viewBox="0 0 397.49759999999986 97.48224034540156" height="97.48224034540156" width="397.49759999999986"><g id="SvgjsG1721"><svg viewBox="0 0 397.49759999999986 97.48224034540156" height="97.48224034540156" width="397.49759999999986" id="SvgjsSvg1720"><g><rect width="397.49759999999986" height="5.224527978814514" x="0" y="64.0883276765062" fill="black" opacity="1" stroke-width="0" stroke="transparent" fill-opacity="1" class="rect-yte-0" rx="1%" id="SvgjsRect1719" data-palette-color="#ff851b"></rect></g><g transform="matrix(1,0,0,1,0.9887999999999693,0)"><svg viewBox="0 0 395.5199999999999 57.933779010363445" height="57.933779010363445" width="395.5199999999999"><g transform="matrix(1,0,0,1,0,0)"><svg width="395.5199999999999" viewBox="3.69 -37.55 334.49 49" height="57.933779010363445" data-palette-color="#ff851b"><path d="M44.43-32.3L44.43 0 38.04 0 38.04-20.85 26.78-1.05Q26.37-0.29 25.62 0.1 24.88 0.49 24.02 0.49L24.02 0.49Q23.19 0.49 22.47 0.1 21.75-0.29 21.34-1.05L21.34-1.05 10.03-20.85 10.03 0 3.69 0 3.69-32.3Q3.69-33.4 4.33-34.25 4.98-35.11 6.03-35.4L6.03-35.4Q6.54-35.52 7.06-35.49 7.57-35.45 8.04-35.27 8.52-35.08 8.91-34.75 9.3-34.42 9.57-33.96L9.57-33.96 24.02-8.84 38.48-33.96Q39.04-34.89 40.03-35.28 41.02-35.67 42.09-35.4L42.09-35.4Q43.12-35.11 43.77-34.25 44.43-33.4 44.43-32.3L44.43-32.3ZM57.54-37.55L57.54-31.81 51.19-31.81 51.19-37.55 57.54-37.55ZM57.54-26.39L57.54 0 51.19 0 51.19-26.39 57.54-26.39ZM92.87-14.65L92.87 0 86.52 0 86.52-14.65Q86.52-15.89 86.09-16.88 85.66-17.87 84.93-18.58 84.2-19.29 83.21-19.67 82.22-20.04 81.07-20.04L81.07-20.04 69.97-20.04 69.97 0 63.62 0 63.62-23.24Q63.62-23.9 63.86-24.48 64.11-25.05 64.55-25.48 64.99-25.9 65.57-26.15 66.16-26.39 66.82-26.39L66.82-26.39 81.12-26.39Q82.32-26.39 83.65-26.12 84.98-25.85 86.29-25.26 87.59-24.66 88.78-23.74 89.96-22.83 90.88-21.52 91.79-20.21 92.33-18.51 92.87-16.8 92.87-14.65L92.87-14.65ZM127.39-37.55L127.39-8.91Q127.39-7.28 126.97-5.97 126.56-4.66 125.87-3.67 125.19-2.69 124.28-1.99 123.38-1.29 122.39-0.85 121.4-0.42 120.39-0.21 119.38 0 118.47 0L118.47 0 107.02 0Q105.39 0 104.09-0.42 102.8-0.83 101.81-1.53 100.82-2.22 100.13-3.13 99.43-4.03 98.99-5.02 98.55-6.01 98.34-7.02 98.14-8.03 98.14-8.91L98.14-8.91 98.14-17.5Q98.14-19.95 99.03-21.64 99.92-23.34 101.25-24.4 102.58-25.46 104.14-25.93 105.71-26.39 107.02-26.39L107.02-26.39 118.47-26.39 118.47-20.04 107.07-20.04Q105.8-20.04 105.14-19.4 104.48-18.75 104.48-17.5L104.48-17.5 104.48-8.96Q104.48-7.67 105.13-7.01 105.78-6.35 107.02-6.35L107.02-6.35 118.47-6.35Q119.77-6.35 120.4-7.01 121.04-7.67 121.04-8.91L121.04-8.91 121.04-37.55 127.39-37.55ZM178.41-14.65L178.41-8.91 175.55-8.91 175.5-8.84Q175.5-7.28 175.1-6.03 174.69-4.79 174.04-3.85 173.38-2.91 172.5-2.22 171.62-1.54 170.68-1.11 169.74-0.68 168.77-0.49 167.81-0.29 166.96-0.29L166.96-0.29 158.34-0.29Q156.07-0.29 154.47-1.15 152.87-2 151.83-3.27 150.79-4.54 150.29-6.03 149.79-7.52 149.74-8.79L149.74-8.79 149.74-11.74Q149.74-13.67 150.29-15.08 150.84-16.48 151.75-17.5L151.75-17.5Q150.7-18.82 150.22-20.36 149.74-21.9 149.74-23.24L149.74-23.24Q149.74-25.61 150.6-27.25 151.45-28.88 152.75-29.9 154.04-30.91 155.54-31.36 157.04-31.81 158.34-31.81L158.34-31.81 172.64-31.81 172.64-26.1 158.34-26.1Q157.68-26.1 157.15-25.89 156.63-25.68 156.25-25.29 155.87-24.9 155.68-24.38 155.48-23.85 155.51-23.24L155.51-23.24Q155.51-21.85 156.29-21.11 157.07-20.36 158.34-20.36L158.34-20.36 166.96-20.36 166.96-14.65 158.34-14.65Q156.99-14.65 156.25-13.82 155.51-12.99 155.51-11.74L155.51-11.74 155.51-9.01Q155.51-7.69 156.3-6.87 157.09-6.05 158.34-6.05L158.34-6.05 166.91-6.05Q168.25-6.05 169.02-6.86 169.79-7.67 169.79-8.91L169.79-8.91Q169.79-9.96 170.15-10.99 170.52-12.01 171.25-12.83 171.98-13.65 173.05-14.15 174.11-14.65 175.5-14.65L175.5-14.65 178.41-14.65ZM235.16-8.91L235.16-7.69Q235.16-6.52 234.76-5.18 234.36-3.83 233.44-2.69 232.53-1.54 231.06-0.77 229.6 0 227.47 0L227.47 0 203.38 0Q202.69 0 202.11-0.24 201.52-0.49 201.09-0.92 200.67-1.34 200.42-1.93 200.18-2.51 200.18-3.2L200.18-3.2 200.18-31.81Q200.18-32.47 200.42-33.06 200.67-33.64 201.09-34.08 201.52-34.52 202.11-34.77 202.69-35.01 203.38-35.01L203.38-35.01 224.62-35.01Q225.79-35.01 227.13-34.59 228.47-34.18 229.63-33.26 230.79-32.35 231.56-30.88 232.33-29.42 232.33-27.29L232.33-27.29 232.33-26.1Q232.33-24.41 231.77-22.47 231.21-20.53 229.96-18.8L229.96-18.8Q231.04-18.14 231.98-17.21 232.92-16.28 233.63-15.06 234.33-13.84 234.75-12.3 235.16-10.77 235.16-8.91L235.16-8.91ZM228.82-7.74L228.82-8.91Q228.82-10.16 228.42-11.15 228.03-12.13 227.33-12.84 226.62-13.55 225.62-13.93 224.62-14.31 223.37-14.31L223.37-14.31 209.06-14.31 209.06-20.7 220.51-20.7Q221.76-20.7 222.76-21.08 223.76-21.46 224.47-22.17 225.18-22.88 225.56-23.86 225.93-24.85 225.93-26.1L225.93-26.1 225.93-27.29Q225.93-28.66 224.62-28.66L224.62-28.66 206.53-28.66 206.53-6.35 227.47-6.35Q227.64-6.35 227.89-6.37 228.13-6.4 228.33-6.52 228.52-6.64 228.67-6.93 228.82-7.23 228.82-7.74L228.82-7.74ZM268.68-17.5L268.68-8.91Q268.68-7.28 268.27-5.97 267.85-4.66 267.17-3.67 266.48-2.69 265.58-1.99 264.68-1.29 263.69-0.85 262.7-0.42 261.69-0.21 260.67 0 259.77 0L259.77 0 248.32 0Q247 0 245.44-0.46 243.88-0.93 242.55-1.99 241.22-3.05 240.32-4.75 239.43-6.45 239.43-8.91L239.43-8.91 239.43-17.5Q239.43-19.95 240.32-21.64 241.22-23.34 242.55-24.4 243.88-25.46 245.44-25.93 247-26.39 248.32-26.39L248.32-26.39 259.77-26.39Q262.21-26.39 263.92-25.51 265.63-24.63 266.68-23.3 267.73-21.97 268.21-20.41 268.68-18.85 268.68-17.5L268.68-17.5ZM262.33-8.91L262.33-17.46Q262.33-18.77 261.67-19.41 261.02-20.04 259.77-20.04L259.77-20.04 248.37-20.04Q247.1-20.04 246.44-19.4 245.78-18.75 245.78-17.5L245.78-17.5 245.78-8.91Q245.78-7.67 246.44-7.01 247.1-6.35 248.37-6.35L248.37-6.35 259.77-6.35Q261.06-6.35 261.7-7.01 262.33-7.67 262.33-8.91L262.33-8.91ZM303.03-37.55L303.03-8.91Q303.03-7.28 302.61-5.97 302.2-4.66 301.52-3.67 300.83-2.69 299.93-1.99 299.03-1.29 298.04-0.85 297.05-0.42 296.03-0.21 295.02 0 294.12 0L294.12 0 282.67 0Q281.03 0 279.74-0.42 278.44-0.83 277.46-1.53 276.47-2.22 275.77-3.13 275.08-4.03 274.64-5.02 274.2-6.01 273.99-7.02 273.78-8.03 273.78-8.91L273.78-8.91 273.78-17.5Q273.78-19.95 274.67-21.64 275.56-23.34 276.89-24.4 278.22-25.46 279.79-25.93 281.35-26.39 282.67-26.39L282.67-26.39 294.12-26.39 294.12-20.04 282.72-20.04Q281.45-20.04 280.79-19.4 280.13-18.75 280.13-17.5L280.13-17.5 280.13-8.96Q280.13-7.67 280.78-7.01 281.42-6.35 282.67-6.35L282.67-6.35 294.12-6.35Q295.41-6.35 296.05-7.01 296.68-7.67 296.68-8.91L296.68-8.91 296.68-37.55 303.03-37.55ZM338.18-26.39L338.18 2.54Q338.18 4.17 337.77 5.48 337.35 6.79 336.67 7.78 335.99 8.76 335.08 9.46 334.18 10.16 333.19 10.6 332.2 11.04 331.2 11.24 330.2 11.45 329.3 11.45L329.3 11.45 317.85 11.45 317.85 5.1 329.3 5.1Q330.57 5.1 331.2 4.44 331.84 3.78 331.84 2.54L331.84 2.54 331.84-26.39 338.18-26.39ZM329.3-6.35L329.3 0 317.85 0Q316.48 0 314.93-0.46 313.38-0.93 312.04-1.99 310.69-3.05 309.81-4.75 308.93-6.45 308.93-8.91L308.93-8.91 308.93-26.39 315.28-26.39 315.28-8.91Q315.28-7.67 315.94-7.01 316.6-6.35 317.89-6.35L317.89-6.35 329.3-6.35Z" opacity="1" transform="matrix(1,0,0,1,0,0)" fill="black" class="wordmark-text-0" id="SvgjsPath1718"></path></svg></g></svg></g><g transform="matrix(1,0,0,1,0,75.46740432146346)"><svg viewBox="0 0 395.5199999999999 22.014836023938106" height="22.014836023938106" width="395.5199999999999"><g transform="matrix(1,0,0,1,0,0)"><svg width="395.5199999999999" viewBox="4 -35.01 637.76 35.5" height="22.014836023938106" data-palette-color="url(#8512a29f-3509-4314-83ff-055aa3ffd6f9)"><path d="M23.71 0L20.56 0 20.56-15.99 7.15-15.99 7.15 0 4 0 4-35.01 7.15-35.01 7.15-18.99 20.56-18.99 20.56-35.01 23.71-35.01 23.71 0ZM60.79-6.86L60.79-6.86Q60.79-5.35 60.22-4 59.65-2.66 58.64-1.66 57.64-0.66 56.3-0.09 54.96 0.49 53.44 0.49L53.44 0.49 51.44 0.49Q49.93 0.49 48.59-0.09 47.24-0.66 46.24-1.66 45.24-2.66 44.67-4 44.09-5.35 44.09-6.86L44.09-6.86 44.09-18.14Q44.09-19.65 44.67-21 45.24-22.34 46.24-23.34 47.24-24.34 48.59-24.91 49.93-25.49 51.44-25.49L51.44-25.49 53.44-25.49Q54.96-25.49 56.3-24.91 57.64-24.34 58.64-23.34 59.65-22.34 60.22-21 60.79-19.65 60.79-18.14L60.79-18.14 60.79-12.26 47.1-12.26 47.1-6.69Q47.1-5.79 47.44-4.99 47.78-4.2 48.37-3.61 48.95-3.03 49.75-2.69 50.54-2.34 51.44-2.34L51.44-2.34 53.44-2.34Q54.35-2.34 55.14-2.69 55.93-3.03 56.52-3.61 57.11-4.2 57.45-4.99 57.79-5.79 57.79-6.69L57.79-6.69 57.79-8.35 60.79-7.86 60.79-6.86ZM57.79-14.6L57.79-18.31Q57.79-19.21 57.45-20.01 57.11-20.8 56.52-21.39 55.93-21.97 55.14-22.31 54.35-22.66 53.44-22.66L53.44-22.66 51.44-22.66Q50.54-22.66 49.75-22.31 48.95-21.97 48.37-21.39 47.78-20.8 47.44-20.01 47.1-19.21 47.1-18.31L47.1-18.31 47.1-14.6 57.79-14.6ZM97.37 0L96.37 0 94.71-2.49Q93.68-1.15 92.14-0.33 90.6 0.49 88.77 0.49L88.77 0.49 88.02 0.49Q86.5 0.49 85.16-0.09 83.82-0.66 82.82-1.66 81.82-2.66 81.24-4 80.67-5.35 80.67-6.86L80.67-6.86 80.67-7.1Q80.67-8.62 81.24-9.96 81.82-11.3 82.82-12.3 83.82-13.31 85.16-13.88 86.5-14.45 88.02-14.45L88.02-14.45 94.36-14.45 94.36-18.31Q94.36-19.21 94.02-20.01 93.68-20.8 93.1-21.39 92.51-21.97 91.72-22.31 90.92-22.66 90.02-22.66L90.02-22.66 88.26-22.66Q87.36-22.66 86.56-22.31 85.77-21.97 85.18-21.39 84.6-20.8 84.26-20.01 83.92-19.21 83.92-18.31L83.92-18.31 83.92-17.41 80.91-17.9 80.91-18.14Q80.91-19.65 81.49-21 82.06-22.34 83.06-23.34 84.06-24.34 85.4-24.91 86.75-25.49 88.26-25.49L88.26-25.49 90.02-25.49Q91.53-25.49 92.88-24.91 94.22-24.34 95.22-23.34 96.22-22.34 96.79-21 97.37-19.65 97.37-18.14L97.37-18.14 97.37 0ZM94.36-6.69L94.36-12.11 88.02-12.11Q87.11-12.11 86.32-11.77 85.53-11.43 84.94-10.83 84.35-10.23 84.01-9.44 83.67-8.64 83.67-7.74L83.67-7.74 83.67-6.69Q83.67-5.79 84.01-4.99 84.35-4.2 84.94-3.61 85.53-3.03 86.32-2.69 87.11-2.34 88.02-2.34L88.02-2.34 90.02-2.34Q90.92-2.34 91.72-2.69 92.51-3.03 93.1-3.61 93.68-4.2 94.02-4.99 94.36-5.79 94.36-6.69L94.36-6.69ZM121.25 0L118.24 0 118.24-35.01 121.25-35.01 121.25 0ZM153.96 0L151.23 0Q149.86 0 148.65-0.51 147.45-1.03 146.55-1.93 145.66-2.83 145.14-4.03 144.61-5.22 144.61-6.59L144.61-6.59 144.61-22.14 140.12-22.14 140.12-25 144.61-25 144.61-31.01 147.62-31.49 147.62-25 153.96-25 153.96-22.14 147.62-22.14 147.62-6.45Q147.62-5.69 147.9-5.04 148.18-4.39 148.67-3.91 149.15-3.42 149.81-3.14 150.47-2.86 151.23-2.86L151.23-2.86 153.96-2.86 153.96 0ZM190.05 0L187.05 0 187.05-18.31Q187.05-19.21 186.71-20.01 186.36-20.8 185.78-21.39 185.19-21.97 184.4-22.31 183.6-22.66 182.7-22.66L182.7-22.66 180.7-22.66Q179.8-22.66 179-22.31 178.21-21.97 177.62-21.39 177.04-20.8 176.7-20.01 176.35-19.21 176.35-18.31L176.35-18.31 176.35 0 173.35 0 173.35-35.01 176.35-35.01 176.35-22.9Q177.38-24.12 178.82-24.8 180.26-25.49 181.94-25.49L181.94-25.49 182.7-25.49Q184.21-25.49 185.56-24.91 186.9-24.34 187.9-23.34 188.9-22.34 189.48-21 190.05-19.65 190.05-18.14L190.05-18.14 190.05 0ZM251.99 0L250.99 0 249.33-2.49Q248.31-1.15 246.77-0.33 245.23 0.49 243.4 0.49L243.4 0.49 242.64 0.49Q241.13 0.49 239.79-0.09 238.44-0.66 237.44-1.66 236.44-2.66 235.87-4 235.29-5.35 235.29-6.86L235.29-6.86 235.29-7.1Q235.29-8.62 235.87-9.96 236.44-11.3 237.44-12.3 238.44-13.31 239.79-13.88 241.13-14.45 242.64-14.45L242.64-14.45 248.99-14.45 248.99-18.31Q248.99-19.21 248.65-20.01 248.31-20.8 247.72-21.39 247.13-21.97 246.34-22.31 245.55-22.66 244.64-22.66L244.64-22.66 242.89-22.66Q241.98-22.66 241.19-22.31 240.4-21.97 239.81-21.39 239.22-20.8 238.88-20.01 238.54-19.21 238.54-18.31L238.54-18.31 238.54-17.41 235.54-17.9 235.54-18.14Q235.54-19.65 236.11-21 236.68-22.34 237.69-23.34 238.69-24.34 240.03-24.91 241.37-25.49 242.89-25.49L242.89-25.49 244.64-25.49Q246.16-25.49 247.5-24.91 248.84-24.34 249.84-23.34 250.85-22.34 251.42-21 251.99-19.65 251.99-18.14L251.99-18.14 251.99 0ZM248.99-6.69L248.99-12.11 242.64-12.11Q241.74-12.11 240.95-11.77 240.15-11.43 239.57-10.83 238.98-10.23 238.64-9.44 238.3-8.64 238.3-7.74L238.3-7.74 238.3-6.69Q238.3-5.79 238.64-4.99 238.98-4.2 239.57-3.61 240.15-3.03 240.95-2.69 241.74-2.34 242.64-2.34L242.64-2.34 244.64-2.34Q245.55-2.34 246.34-2.69 247.13-3.03 247.72-3.61 248.31-4.2 248.65-4.99 248.99-5.79 248.99-6.69L248.99-6.69ZM288.57 0L285.56 0 285.56-18.31Q285.56-19.21 285.22-20.01 284.88-20.8 284.29-21.39 283.71-21.97 282.92-22.31 282.12-22.66 281.22-22.66L281.22-22.66 279.22-22.66Q278.31-22.66 277.52-22.31 276.73-21.97 276.14-21.39 275.55-20.8 275.21-20.01 274.87-19.21 274.87-18.31L274.87-18.31 274.87 0 271.87 0 271.87-25 272.87-25 274.5-22.46Q275.53-23.85 277.08-24.67 278.63-25.49 280.46-25.49L280.46-25.49 281.22-25.49Q282.73-25.49 284.07-24.91 285.42-24.34 286.42-23.34 287.42-22.34 287.99-21 288.57-19.65 288.57-18.14L288.57-18.14 288.57 0ZM325.14 0L324.14 0 322.48-2.54Q321.45-1.15 319.92-0.33 318.38 0.49 316.55 0.49L316.55 0.49 315.79 0.49Q314.28 0.49 312.93-0.09 311.59-0.66 310.59-1.66 309.59-2.66 309.02-4 308.44-5.35 308.44-6.86L308.44-6.86 308.44-18.14Q308.44-19.65 309.02-21 309.59-22.34 310.59-23.34 311.59-24.34 312.93-24.91 314.28-25.49 315.79-25.49L315.79-25.49 316.55-25.49Q318.23-25.49 319.67-24.8 321.11-24.12 322.14-22.9L322.14-22.9 322.14-35.01 325.14-35.01 325.14 0ZM322.14-6.69L322.14-18.31Q322.14-19.21 321.8-20.01 321.45-20.8 320.87-21.39 320.28-21.97 319.49-22.31 318.7-22.66 317.79-22.66L317.79-22.66 315.79-22.66Q314.89-22.66 314.09-22.31 313.3-21.97 312.71-21.39 312.13-20.8 311.79-20.01 311.44-19.21 311.44-18.31L311.44-18.31 311.44-6.69Q311.44-5.79 311.79-4.99 312.13-4.2 312.71-3.61 313.3-3.03 314.09-2.69 314.89-2.34 315.79-2.34L315.79-2.34 317.79-2.34Q318.7-2.34 319.49-2.69 320.28-3.03 320.87-3.61 321.45-4.2 321.8-4.99 322.14-5.79 322.14-6.69L322.14-6.69ZM391.09 0L389.43 0 374.83-25.49 374.54-27 374.54 0 371.39 0 371.39-35.01 373.02-35.01 387.62-9.5 387.94-8.01 387.94-35.01 391.09-35.01 391.09 0ZM428.18 0L427.17 0 425.51-2.54Q424.49-1.15 422.95-0.33 421.41 0.49 419.58 0.49L419.58 0.49 418.82 0.49Q417.31 0.49 415.97-0.09 414.63-0.66 413.62-1.66 412.62-2.66 412.05-4 411.48-5.35 411.48-6.86L411.48-6.86 411.48-25 414.48-25 414.48-6.69Q414.48-5.79 414.82-4.99 415.16-4.2 415.75-3.61 416.33-3.03 417.13-2.69 417.92-2.34 418.82-2.34L418.82-2.34 420.83-2.34Q421.73-2.34 422.52-2.69 423.32-3.03 423.9-3.61 424.49-4.2 424.83-4.99 425.17-5.79 425.17-6.69L425.17-6.69 425.17-25 428.18-25 428.18 0ZM459.89 0L457.16 0Q455.79 0 454.58-0.51 453.37-1.03 452.48-1.93 451.59-2.83 451.07-4.03 450.54-5.22 450.54-6.59L450.54-6.59 450.54-22.14 446.05-22.14 446.05-25 450.54-25 450.54-31.01 453.54-31.49 453.54-25 459.89-25 459.89-22.14 453.54-22.14 453.54-6.45Q453.54-5.69 453.82-5.04 454.1-4.39 454.59-3.91 455.08-3.42 455.74-3.14 456.4-2.86 457.16-2.86L457.16-2.86 459.89-2.86 459.89 0ZM489.63-22.14L486.63-22.14Q485.72-22.14 484.93-21.8 484.14-21.46 483.55-20.87 482.96-20.29 482.62-19.49 482.28-18.7 482.28-17.8L482.28-17.8 482.28 0 479.28 0 479.28-25 480.28-25 481.91-22.46Q482.94-23.85 484.49-24.67 486.04-25.49 487.87-25.49L487.87-25.49 489.63-25.49 489.63-22.14ZM511.75-31.01L508.26-31.01 508.26-35.01 511.75-35.01 511.75-31.01ZM511.51 0L508.5 0 508.5-25 511.51-25 511.51 0ZM544.22 0L541.49 0Q540.12 0 538.91-0.51 537.71-1.03 536.81-1.93 535.92-2.83 535.4-4.03 534.87-5.22 534.87-6.59L534.87-6.59 534.87-22.14 530.38-22.14 530.38-25 534.87-25 534.87-31.01 537.88-31.49 537.88-25 544.22-25 544.22-22.14 537.88-22.14 537.88-6.45Q537.88-5.69 538.16-5.04 538.44-4.39 538.93-3.91 539.41-3.42 540.07-3.14 540.73-2.86 541.49-2.86L541.49-2.86 544.22-2.86 544.22 0ZM567.86-31.01L564.37-31.01 564.37-35.01 567.86-35.01 567.86-31.01ZM567.61 0L564.61 0 564.61-25 567.61-25 567.61 0ZM605.19-6.86L605.19-6.86Q605.19-5.35 604.62-4 604.04-2.66 603.04-1.66 602.04-0.66 600.7-0.09 599.35 0.49 597.84 0.49L597.84 0.49 595.84 0.49Q594.33 0.49 592.98-0.09 591.64-0.66 590.64-1.66 589.64-2.66 589.06-4 588.49-5.35 588.49-6.86L588.49-6.86 588.49-18.14Q588.49-19.65 589.06-21 589.64-22.34 590.64-23.34 591.64-24.34 592.98-24.91 594.33-25.49 595.84-25.49L595.84-25.49 597.84-25.49Q599.35-25.49 600.7-24.91 602.04-24.34 603.04-23.34 604.04-22.34 604.62-21 605.19-19.65 605.19-18.14L605.19-18.14 605.19-6.86ZM602.19-6.69L602.19-18.31Q602.19-19.21 601.85-20.01 601.5-20.8 600.92-21.39 600.33-21.97 599.54-22.31 598.74-22.66 597.84-22.66L597.84-22.66 595.84-22.66Q594.94-22.66 594.14-22.31 593.35-21.97 592.76-21.39 592.18-20.8 591.84-20.01 591.49-19.21 591.49-18.31L591.49-18.31 591.49-6.69Q591.49-5.79 591.84-4.99 592.18-4.2 592.76-3.61 593.35-3.03 594.14-2.69 594.94-2.34 595.84-2.34L595.84-2.34 597.84-2.34Q598.74-2.34 599.54-2.69 600.33-3.03 600.92-3.61 601.5-4.2 601.85-4.99 602.19-5.79 602.19-6.69L602.19-6.69ZM641.76 0L638.76 0 638.76-18.31Q638.76-19.21 638.42-20.01 638.08-20.8 637.49-21.39 636.91-21.97 636.11-22.31 635.32-22.66 634.42-22.66L634.42-22.66 632.41-22.66Q631.51-22.66 630.72-22.31 629.92-21.97 629.34-21.39 628.75-20.8 628.41-20.01 628.07-19.21 628.07-18.31L628.07-18.31 628.07 0 625.06 0 625.06-25 626.07-25 627.7-22.46Q628.73-23.85 630.28-24.67 631.83-25.49 633.66-25.49L633.66-25.49 634.42-25.49Q635.93-25.49 637.27-24.91 638.61-24.34 639.62-23.34 640.62-22.34 641.19-21 641.76-19.65 641.76-18.14L641.76-18.14 641.76 0Z" opacity="1" transform="matrix(1,0,0,1,0,0)" fill="white" class="slogan-text-1" id="SvgjsPath1717"></path></svg></g></svg></g></svg></g></svg></g><g></g></svg></g><defs><mask></mask></defs></svg><rect width="395.52" height="96.99725407502646" fill="black" stroke="none" visibility="hidden"></rect></g></mask><linearGradient x1="0.054" x2="0.941" y1="0.5" y2="0.5" id="8512a29f-3509-4314-83ff-055aa3ffd6f9"><stop stop-color="#8c8c8c" offset="0"></stop><stop stop-color="#e3e4e5" offset="0.498"></stop><stop stop-color="#8c8c8c" offset="1"></stop></linearGradient><rect width="395.52" height="96.99725407502646" fill="#ffffff" mask="url(#d1364de0-18cd-4698-847d-7d9413fcd5f9)" data-fill-palette-color="secondary"></rect></svg><rect width="395.52" height="96.99725407502646" fill="none" stroke="none" visibility="hidden"></rect></g></svg></g></svg>