<svg xmlns="http://www.w3.org/2000/svg" version="1.1" xmlns:xlink="http://www.w3.org/1999/xlink" xmlns:svgjs="http://svgjs.dev/svgjs" width="1500" height="1500" viewBox="0 0 1500 1500"><rect width="1500" height="1500" fill="#ffffff"></rect><g transform="matrix(0.6666666666666666,0,0,0.6666666666666666,248.40717731496125,532.0836195463876)"><svg viewBox="0 0 188 81" data-background-color="#ffffff" preserveAspectRatio="xMidYMid meet" height="646" width="1500" xmlns="http://www.w3.org/2000/svg" xmlns:xlink="http://www.w3.org/1999/xlink"><g id="tight-bounds" transform="matrix(1,0,0,1,0.29945066478728677,0.4858207819100926)"><svg viewBox="0 0 187.40109867042543 80.02835843617983" height="80.02835843617983" width="187.40109867042543"><g><svg viewBox="0 0 187.40109867042543 80.02835843617983" height="80.02835843617983" width="187.40109867042543"><g><svg viewBox="0 0 187.40109867042543 80.02835843617983" height="80.02835843617983" width="187.40109867042543"><g id="textblocktransform"><svg viewBox="0 0 187.40109867042543 80.02835843617983" height="80.02835843617983" width="187.40109867042543" id="textblock"><g><svg viewBox="0 0 187.40109867042543 54.009725090706105" height="54.009725090706105" width="187.40109867042543"><g><svg><g></g><g></g></svg></g><g><svg><g><svg></svg></g><g></g></svg></g><g id="text-0"><svg viewBox="0 0 187.40109867042543 54.009725090706105" height="54.009725090706105" width="187.40109867042543"><g transform="matrix(1,0,0,1,0,0)"><svg width="83.96469867042545" viewBox="2.05 -35.35 55.5 35.7" height="54.009725090706105" data-palette-color="url(#98992569-ead7-4fb4-ae26-0e1f07b347c1)"><g class="wordmark-text-0" data-fill-palette-color="primary"></g></svg></g><g><svg xmlns="http://www.w3.org/2000/svg" xmlns:xlink="http://www.w3.org/1999/xlink" version="1.1" x="97.60209867042545" y="0" viewBox="5.2 23.125 89.575 53.875" style="enable-background:new 0 0 100 100;" xml:space="preserve" height="54.009725090706105" width="89.79899999999999" class="icon-dxe-0" data-fill-palette-color="accent" id="dxe-0"><path d="M82.7 35.1C88 40.6 87.8 49.3 82.3 54.6 77 59.7 68.6 59.7 63.3 54.6L57.6 60.3C66.1 68.8 79.9 68.8 88.4 60.3S96.9 38 88.4 29.5 66.1 21 57.6 29.5L63.3 35.2C68.7 29.7 77.4 29.7 82.7 35.1" fill="#724016" data-fill-palette-color="accent"></path><path d="M28.1 74.7C28.8 76.1 30.2 77 31.7 77H32C33.6 76.9 35 75.8 35.5 74.2L46.4 39.9 51.1 46.9C51.8 48 53.1 48.7 54.4 48.7H75V40.7H56.6L48.5 28.5C47.3 26.7 44.8 26.2 43 27.4 42.2 27.9 41.7 28.7 41.4 29.5L31 62.1 21.9 43C21.2 41.6 19.8 40.7 18.3 40.7H5.2V48.7H15.7z" fill="#724016" data-fill-palette-color="accent"></path></svg></g></svg></g></svg></g><g transform="matrix(1,0,0,1,0,66.76012495121964)"><svg viewBox="0 0 187.40109867042543 13.26823348496019" height="13.26823348496019" width="187.40109867042543"><g transform="matrix(1,0,0,1,0,0)"><svg width="187.40109867042543" viewBox="2.1 -32.3 461.09999999999997 32.65" height="13.26823348496019" data-palette-color="url(#4530a2d5-1c2b-40ab-a27e-abf2ac286075)"></svg></g></svg></g></svg></g></svg></g><g></g></svg></g><defs></defs><mask id="ea875608-6c48-41fc-8b4e-28020808c547"><g id="SvgjsG4689"><svg viewBox="0 0 187.40109867042543 80.02835843617983" height="80.02835843617983" width="187.40109867042543"><g><svg viewBox="0 0 187.40109867042543 80.02835843617983" height="80.02835843617983" width="187.40109867042543"><g><svg viewBox="0 0 187.40109867042543 80.02835843617983" height="80.02835843617983" width="187.40109867042543"><g id="SvgjsG4688"><svg viewBox="0 0 187.40109867042543 80.02835843617983" height="80.02835843617983" width="187.40109867042543" id="SvgjsSvg4687"><g><svg viewBox="0 0 187.40109867042543 54.009725090706105" height="54.009725090706105" width="187.40109867042543"><g><svg><g></g><g></g></svg></g><g><svg><g><svg></svg></g><g></g></svg></g><g id="SvgjsG4686"><svg viewBox="0 0 187.40109867042543 54.009725090706105" height="54.009725090706105" width="187.40109867042543"><g transform="matrix(1,0,0,1,0,0)"><svg width="83.96469867042545" viewBox="2.05 -35.35 55.5 35.7" height="54.009725090706105" data-palette-color="url(#98992569-ead7-4fb4-ae26-0e1f07b347c1)"><g class="wordmark-text-0" data-fill-palette-color="primary"><path d="M2.05-8.15L8.3-9.9Q8.55-8.5 9.4-7.45 10.25-6.4 11.63-5.83 13-5.25 14.8-5.25L14.8-5.25Q17.75-5.25 19.2-6.58 20.65-7.9 20.65-9.8L20.65-9.8Q20.65-11.3 19.75-12.3 18.85-13.3 17.23-14 15.6-14.7 13.45-15.35L13.45-15.35Q11.45-15.95 9.47-16.65 7.5-17.35 5.93-18.4 4.35-19.45 3.43-21.13 2.5-22.8 2.5-25.35L2.5-25.35Q2.5-28.55 4.08-30.8 5.65-33.05 8.4-34.2 11.15-35.35 14.75-35.35L14.75-35.35Q17.8-35.35 20.25-34.48 22.7-33.6 24.38-31.93 26.05-30.25 26.85-27.8L26.85-27.8 20.6-26.1Q20.35-27.2 19.5-28 18.65-28.8 17.43-29.28 16.2-29.75 14.85-29.75L14.85-29.75Q13.35-29.8 12.1-29.3 10.85-28.8 10.1-27.85 9.35-26.9 9.35-25.65L9.35-25.65Q9.35-24.25 10.2-23.43 11.05-22.6 12.45-22.03 13.85-21.45 15.6-20.9L15.6-20.9Q17.65-20.3 19.78-19.53 21.9-18.75 23.65-17.57 25.4-16.4 26.48-14.6 27.55-12.8 27.55-10.05L27.55-10.05Q27.55-7.15 26.18-4.8 24.8-2.45 22.05-1.05 19.3 0.35 15.15 0.35L15.15 0.35Q11.75 0.35 8.97-0.65 6.2-1.65 4.4-3.58 2.6-5.5 2.05-8.15L2.05-8.15ZM57.55-35L57.55-29.35 39.7-29.35 39.7-20.45 53.05-20.45 53.05-15 39.7-15 39.7-5.65 57.55-5.65 57.55 0 32.95 0 32.95-35 57.55-35Z" fill="white"></path></g></svg></g><g><svg xmlns="http://www.w3.org/2000/svg" xmlns:xlink="http://www.w3.org/1999/xlink" version="1.1" x="97.60209867042545" y="0" viewBox="5.2 23.125 89.575 53.875" style="enable-background:new 0 0 100 100;" xml:space="preserve" height="54.009725090706105" width="89.79899999999999" class="icon-dxe-0" data-fill-palette-color="accent" id="SvgjsSvg4685"><path d="M82.7 35.1C88 40.6 87.8 49.3 82.3 54.6 77 59.7 68.6 59.7 63.3 54.6L57.6 60.3C66.1 68.8 79.9 68.8 88.4 60.3S96.9 38 88.4 29.5 66.1 21 57.6 29.5L63.3 35.2C68.7 29.7 77.4 29.7 82.7 35.1" fill="black"></path><path d="M28.1 74.7C28.8 76.1 30.2 77 31.7 77H32C33.6 76.9 35 75.8 35.5 74.2L46.4 39.9 51.1 46.9C51.8 48 53.1 48.7 54.4 48.7H75V40.7H56.6L48.5 28.5C47.3 26.7 44.8 26.2 43 27.4 42.2 27.9 41.7 28.7 41.4 29.5L31 62.1 21.9 43C21.2 41.6 19.8 40.7 18.3 40.7H5.2V48.7H15.7z" fill="black"></path></svg></g></svg></g></svg></g><g transform="matrix(1,0,0,1,0,66.76012495121964)"><svg viewBox="0 0 187.40109867042543 13.26823348496019" height="13.26823348496019" width="187.40109867042543"><g transform="matrix(1,0,0,1,0,0)"><svg width="187.40109867042543" viewBox="2.1 -32.3 461.09999999999997 32.65" height="13.26823348496019" data-palette-color="url(#4530a2d5-1c2b-40ab-a27e-abf2ac286075)"><path d="M13.35-32.3Q16.8-32.3 20.5-30.8L20.5-30.8 19.85-26.95 19.15-26.75Q17.7-27.85 16.07-28.45 14.45-29.05 12.85-29.05L12.85-29.05Q11-29.05 9.63-28.3 8.25-27.55 7.53-26.35 6.8-25.15 6.8-23.85L6.8-23.85Q6.8-22.5 7.63-21.48 8.45-20.45 9.7-19.7 10.95-18.95 13.1-17.9L13.1-17.9Q15.8-16.65 17.45-15.58 19.1-14.5 20.28-12.85 21.45-11.2 21.45-8.85L21.45-8.85Q21.45-6.35 20.1-4.25 18.75-2.15 16.3-0.9 13.85 0.35 10.7 0.35L10.7 0.35Q8.6 0.35 6.33-0.23 4.05-0.8 2.1-1.9L2.1-1.9 2.6-6 3.15-6.25Q4.9-4.55 7.03-3.73 9.15-2.9 11.1-2.9L11.1-2.9Q13-2.9 14.48-3.65 15.95-4.4 16.73-5.65 17.5-6.9 17.5-8.3L17.5-8.3Q17.5-10.4 15.9-11.68 14.3-12.95 11.05-14.45L11.05-14.45Q8.4-15.75 6.8-16.78 5.2-17.8 4.05-19.43 2.9-21.05 2.9-23.4L2.9-23.4Q2.9-25.85 4.23-27.9 5.55-29.95 7.93-31.13 10.3-32.3 13.35-32.3L13.35-32.3ZM31.85-24.9L31.7-7.8 31.8 0 28.1 0 28.25-7.5 28.1-24.9 31.85-24.9ZM50.8-25.1Q56.5-25.1 59.52-22.05 62.55-19 62.55-13.3L62.55-13.3Q62.55-6.75 59.25-3.25 55.95 0.25 49.8 0.25L49.8 0.25Q48.05 0.25 45.62 0.18 43.2 0.1 41.05 0L41.05 0 41.2-7.5 41.05-24.9 50.8-25.1ZM50.4-2.8Q54.4-2.8 56.57-5.23 58.75-7.65 58.75-12.55L58.75-12.55Q58.75-17.35 56.7-19.65 54.65-21.95 50.5-21.95L50.5-21.95Q48.05-21.95 44.75-21.75L44.75-21.75 44.65-7.8 44.7-3.1Q46.15-3 47.75-2.9 49.34-2.8 50.4-2.8L50.4-2.8ZM79.09-25.1Q84.79-25.1 87.82-22.05 90.84-19 90.84-13.3L90.84-13.3Q90.84-6.75 87.54-3.25 84.24 0.25 78.09 0.25L78.09 0.25Q76.34 0.25 73.92 0.18 71.49 0.1 69.34 0L69.34 0 69.49-7.5 69.34-24.9 79.09-25.1ZM78.69-2.8Q82.69-2.8 84.87-5.23 87.04-7.65 87.04-12.55L87.04-12.55Q87.04-17.35 84.99-19.65 82.94-21.95 78.79-21.95L78.79-21.95Q76.34-21.95 73.04-21.75L73.04-21.75 72.94-7.8 72.99-3.1Q74.44-3 76.04-2.9 77.64-2.8 78.69-2.8L78.69-2.8ZM118.49-24.9L118.34-7.8 118.44 0 114.74 0 114.89-7.5 114.84-10.9 101.29-10.85 101.24-7.8 101.34 0 97.64 0 97.79-7.5 97.64-24.9 101.39-24.9 101.29-14.2 108.04-14.15 114.84-14.2 114.74-24.9 118.49-24.9ZM138.09-24.9L146.84 0 143.09 0 142.49-2.7 141.19-6.4 135.24-6.45 129.94-6.4 128.59-2.9 127.89 0 124.19 0 133.79-24.9 138.09-24.9ZM135.54-9.4L140.14-9.45 135.99-21.25 135.69-21.25 131.14-9.45 135.54-9.4ZM164.48-10.05Q167.53-5.4 171.24-0.9L171.24-0.9 171.19-0.4Q169.09 0.25 167.74 0.35L167.74 0.35 167.09-0.05Q163.28-5.8 161.34-9.1L161.34-9.1 156.63-9.05 156.63-7.8 156.73 0 153.03 0 153.19-7.5 153.03-24.9 161.53-24.95Q165.48-24.95 167.61-23.1 169.74-21.25 169.74-17.75L169.74-17.75Q169.74-15.2 168.36-13.2 166.98-11.2 164.48-10.05L164.48-10.05ZM156.73-21.9L156.69-12.15 161.38-12Q165.84-13.25 165.84-17.45L165.84-17.45Q165.84-19.65 164.53-20.75 163.23-21.85 160.59-21.95L160.59-21.95 156.73-21.9ZM191.53-24.9L191.73-24.6 191.48-21.45 186.83-21.8 184.33-21.8 184.18-7.8 184.33 0 180.58 0 180.73-7.5 180.63-21.8 178.13-21.8 173.38-21.45 173.08-21.8 173.38-24.9 191.53-24.9ZM218.68-24.9L218.53-7.8 218.63 0 214.93 0 215.08-7.5 215.03-10.9 201.48-10.85 201.43-7.8 201.53 0 197.83 0 197.98-7.5 197.83-24.9 201.58-24.9 201.48-14.2 208.23-14.15 215.03-14.2 214.93-24.9 218.68-24.9ZM254.08-3.5L254.33-3.1 254.03 0 236.03 0 236.28-9.65 236.03-32.05 254.08-32.05 254.28-31.65 253.98-28.55 246.43-28.7 240.08-28.6 239.98-18.1 245.98-18 251.28-18.15 251.58-17.8 251.23-14.7 245.63-14.8 239.93-14.75 239.88-10 240.03-3.35 246.38-3.3 254.08-3.5ZM273.17-3.15L273.37-2.8 273.12 0 259.87 0 260.02-7.5 259.87-24.9 263.62-24.9 263.47-7.8 263.57-3.15 273.17-3.15ZM287.37-3L294.02-3.2 294.32-2.9 293.97 0 278.82 0 278.97-7.5 278.82-24.9 294.07-24.9 294.32-24.6 294.02-21.7 287.72-21.9 282.52-21.85 282.47-14.3 287.42-14.25 291.77-14.4 292.02-14.05 291.72-11.1 287.12-11.25 282.47-11.2 282.42-7.8 282.47-3.05 287.37-3ZM309.47-25.15Q313.62-25.15 316.67-23.4L316.67-23.4 315.97-19.95 315.52-19.8Q314.27-20.85 312.62-21.45 310.97-22.05 309.07-22.05L309.07-22.05Q305.37-22.05 303.42-19.68 301.47-17.3 301.47-12.6L301.47-12.6Q301.47-7.85 303.42-5.35 305.37-2.85 309.07-2.85L309.07-2.85Q310.87-2.85 312.69-3.48 314.52-4.1 315.97-5.15L315.97-5.15 316.42-5 316.07-1.55Q312.67 0.3 308.92 0.3L308.92 0.3Q303.42 0.3 300.47-2.98 297.52-6.25 297.52-12.3L297.52-12.3Q297.52-18.45 300.64-21.8 303.77-25.15 309.47-25.15L309.47-25.15ZM338.37-24.9L338.57-24.6 338.32-21.45 333.67-21.8 331.17-21.8 331.02-7.8 331.17 0 327.42 0 327.57-7.5 327.47-21.8 324.97-21.8 320.22-21.45 319.92-21.8 320.22-24.9 338.37-24.9ZM356.11-10.05Q359.16-5.4 362.86-0.9L362.86-0.9 362.81-0.4Q360.71 0.25 359.36 0.35L359.36 0.35 358.71-0.05Q354.91-5.8 352.96-9.1L352.96-9.1 348.26-9.05 348.26-7.8 348.36 0 344.66 0 344.81-7.5 344.66-24.9 353.16-24.95Q357.11-24.95 359.24-23.1 361.36-21.25 361.36-17.75L361.36-17.75Q361.36-15.2 359.99-13.2 358.61-11.2 356.11-10.05L356.11-10.05ZM348.36-21.9L348.31-12.15 353.01-12Q357.46-13.25 357.46-17.45L357.46-17.45Q357.46-19.65 356.16-20.75 354.86-21.85 352.21-21.95L352.21-21.95 348.36-21.9ZM373.21-24.9L373.06-7.8 373.16 0 369.46 0 369.61-7.5 369.46-24.9 373.21-24.9ZM391.26-25.15Q395.41-25.15 398.46-23.4L398.46-23.4 397.76-19.95 397.31-19.8Q396.06-20.85 394.41-21.45 392.76-22.05 390.86-22.05L390.86-22.05Q387.16-22.05 385.21-19.68 383.26-17.3 383.26-12.6L383.26-12.6Q383.26-7.85 385.21-5.35 387.16-2.85 390.86-2.85L390.86-2.85Q392.66-2.85 394.48-3.48 396.31-4.1 397.76-5.15L397.76-5.15 398.21-5 397.86-1.55Q394.46 0.3 390.71 0.3L390.71 0.3Q385.21 0.3 382.26-2.98 379.31-6.25 379.31-12.3L379.31-12.3Q379.31-18.45 382.43-21.8 385.56-25.15 391.26-25.15L391.26-25.15ZM415.26-24.9L424.01 0 420.26 0 419.66-2.7 418.36-6.4 412.41-6.45 407.11-6.4 405.76-2.9 405.06 0 401.36 0 410.96-24.9 415.26-24.9ZM412.71-9.4L417.31-9.45 413.16-21.25 412.86-21.25 408.31-9.45 412.71-9.4ZM443.4-3.15L443.6-2.8 443.35 0 430.1 0 430.25-7.5 430.1-24.9 433.85-24.9 433.7-7.8 433.8-3.15 443.4-3.15ZM456.4-25.15Q459.45-25.15 462.5-23.95L462.5-23.95 461.85-20.25 461.25-20.1Q459.85-21.2 458.6-21.73 457.35-22.25 456-22.25L456-22.25Q453.85-22.25 452.6-21.13 451.35-20 451.35-18.55L451.35-18.55Q451.35-17.1 452.58-16.2 453.8-15.3 456.35-14.2L456.35-14.2Q458.6-13.2 459.93-12.4 461.25-11.6 462.23-10.28 463.2-8.95 463.2-7.05L463.2-7.05Q463.2-5.1 462.15-3.43 461.1-1.75 459.08-0.73 457.05 0.3 454.25 0.3L454.25 0.3Q452.5 0.3 450.58-0.13 448.65-0.55 447-1.4L447-1.4 447.45-5.35 447.95-5.55Q449.35-4.15 451.23-3.38 453.1-2.6 454.7-2.6L454.7-2.6Q456.8-2.6 458.15-3.73 459.5-4.85 459.5-6.45L459.5-6.45Q459.5-7.95 458.28-8.85 457.05-9.75 454.45-10.95L454.45-10.95Q452.3-11.9 450.93-12.7 449.55-13.5 448.6-14.83 447.65-16.15 447.65-18.05L447.65-18.05Q447.65-20.05 448.73-21.65 449.8-23.25 451.78-24.2 453.75-25.15 456.4-25.15L456.4-25.15Z" opacity="1" transform="matrix(1,0,0,1,0,0)" fill="black" class="slogan-text-1" id="SvgjsPath4684"></path></svg></g></svg></g></svg></g></svg></g><g></g></svg></g><defs><mask></mask></defs></svg><rect width="187.40109867042543" height="80.02835843617983" fill="black" stroke="none" visibility="hidden"></rect></g></mask><linearGradient x1="0.054" x2="0.941" y1="0.5" y2="0.5" id="98992569-ead7-4fb4-ae26-0e1f07b347c1"><stop stop-color="#0f3054" offset="0"></stop><stop stop-color="#3b8dcb" offset="0.498"></stop><stop stop-color="#0f3054" offset="1"></stop></linearGradient><rect width="187.40109867042543" height="80.02835843617983" fill="url(#98992569-ead7-4fb4-ae26-0e1f07b347c1)" mask="url(#ea875608-6c48-41fc-8b4e-28020808c547)" data-fill-palette-color="primary"></rect><mask id="5ffc760f-93eb-4404-9251-bc00018f1131"><g id="SvgjsG4701"><svg viewBox="0 0 187.40109867042543 80.02835843617983" height="80.02835843617983" width="187.40109867042543"><g><svg viewBox="0 0 187.40109867042543 80.02835843617983" height="80.02835843617983" width="187.40109867042543"><g><svg viewBox="0 0 187.40109867042543 80.02835843617983" height="80.02835843617983" width="187.40109867042543"><g id="SvgjsG4700"><svg viewBox="0 0 187.40109867042543 80.02835843617983" height="80.02835843617983" width="187.40109867042543" id="SvgjsSvg4699"><g><svg viewBox="0 0 187.40109867042543 54.009725090706105" height="54.009725090706105" width="187.40109867042543"><g><svg><g></g><g></g></svg></g><g><svg><g><svg></svg></g><g></g></svg></g><g id="SvgjsG4698"><svg viewBox="0 0 187.40109867042543 54.009725090706105" height="54.009725090706105" width="187.40109867042543"><g transform="matrix(1,0,0,1,0,0)"><svg width="83.96469867042545" viewBox="2.05 -35.35 55.5 35.7" height="54.009725090706105" data-palette-color="url(#98992569-ead7-4fb4-ae26-0e1f07b347c1)"><g class="wordmark-text-0" data-fill-palette-color="primary"></g></svg></g><g><svg xmlns="http://www.w3.org/2000/svg" xmlns:xlink="http://www.w3.org/1999/xlink" version="1.1" x="97.60209867042545" y="0" viewBox="5.2 23.125 89.575 53.875" style="enable-background:new 0 0 100 100;" xml:space="preserve" height="54.009725090706105" width="89.79899999999999" class="icon-dxe-0" data-fill-palette-color="accent" id="SvgjsSvg4697"><path d="M82.7 35.1C88 40.6 87.8 49.3 82.3 54.6 77 59.7 68.6 59.7 63.3 54.6L57.6 60.3C66.1 68.8 79.9 68.8 88.4 60.3S96.9 38 88.4 29.5 66.1 21 57.6 29.5L63.3 35.2C68.7 29.7 77.4 29.7 82.7 35.1" fill="black"></path><path d="M28.1 74.7C28.8 76.1 30.2 77 31.7 77H32C33.6 76.9 35 75.8 35.5 74.2L46.4 39.9 51.1 46.9C51.8 48 53.1 48.7 54.4 48.7H75V40.7H56.6L48.5 28.5C47.3 26.7 44.8 26.2 43 27.4 42.2 27.9 41.7 28.7 41.4 29.5L31 62.1 21.9 43C21.2 41.6 19.8 40.7 18.3 40.7H5.2V48.7H15.7z" fill="black"></path></svg></g></svg></g></svg></g><g transform="matrix(1,0,0,1,0,66.76012495121964)"><svg viewBox="0 0 187.40109867042543 13.26823348496019" height="13.26823348496019" width="187.40109867042543"><g transform="matrix(1,0,0,1,0,0)"><svg width="187.40109867042543" viewBox="2.1 -32.3 461.09999999999997 32.65" height="13.26823348496019" data-palette-color="url(#4530a2d5-1c2b-40ab-a27e-abf2ac286075)"><path d="M13.35-32.3Q16.8-32.3 20.5-30.8L20.5-30.8 19.85-26.95 19.15-26.75Q17.7-27.85 16.07-28.45 14.45-29.05 12.85-29.05L12.85-29.05Q11-29.05 9.63-28.3 8.25-27.55 7.53-26.35 6.8-25.15 6.8-23.85L6.8-23.85Q6.8-22.5 7.63-21.48 8.45-20.45 9.7-19.7 10.95-18.95 13.1-17.9L13.1-17.9Q15.8-16.65 17.45-15.58 19.1-14.5 20.28-12.85 21.45-11.2 21.45-8.85L21.45-8.85Q21.45-6.35 20.1-4.25 18.75-2.15 16.3-0.9 13.85 0.35 10.7 0.35L10.7 0.35Q8.6 0.35 6.33-0.23 4.05-0.8 2.1-1.9L2.1-1.9 2.6-6 3.15-6.25Q4.9-4.55 7.03-3.73 9.15-2.9 11.1-2.9L11.1-2.9Q13-2.9 14.48-3.65 15.95-4.4 16.73-5.65 17.5-6.9 17.5-8.3L17.5-8.3Q17.5-10.4 15.9-11.68 14.3-12.95 11.05-14.45L11.05-14.45Q8.4-15.75 6.8-16.78 5.2-17.8 4.05-19.43 2.9-21.05 2.9-23.4L2.9-23.4Q2.9-25.85 4.23-27.9 5.55-29.95 7.93-31.13 10.3-32.3 13.35-32.3L13.35-32.3ZM31.85-24.9L31.7-7.8 31.8 0 28.1 0 28.25-7.5 28.1-24.9 31.85-24.9ZM50.8-25.1Q56.5-25.1 59.52-22.05 62.55-19 62.55-13.3L62.55-13.3Q62.55-6.75 59.25-3.25 55.95 0.25 49.8 0.25L49.8 0.25Q48.05 0.25 45.62 0.18 43.2 0.1 41.05 0L41.05 0 41.2-7.5 41.05-24.9 50.8-25.1ZM50.4-2.8Q54.4-2.8 56.57-5.23 58.75-7.65 58.75-12.55L58.75-12.55Q58.75-17.35 56.7-19.65 54.65-21.95 50.5-21.95L50.5-21.95Q48.05-21.95 44.75-21.75L44.75-21.75 44.65-7.8 44.7-3.1Q46.15-3 47.75-2.9 49.34-2.8 50.4-2.8L50.4-2.8ZM79.09-25.1Q84.79-25.1 87.82-22.05 90.84-19 90.84-13.3L90.84-13.3Q90.84-6.75 87.54-3.25 84.24 0.25 78.09 0.25L78.09 0.25Q76.34 0.25 73.92 0.18 71.49 0.1 69.34 0L69.34 0 69.49-7.5 69.34-24.9 79.09-25.1ZM78.69-2.8Q82.69-2.8 84.87-5.23 87.04-7.65 87.04-12.55L87.04-12.55Q87.04-17.35 84.99-19.65 82.94-21.95 78.79-21.95L78.79-21.95Q76.34-21.95 73.04-21.75L73.04-21.75 72.94-7.8 72.99-3.1Q74.44-3 76.04-2.9 77.64-2.8 78.69-2.8L78.69-2.8ZM118.49-24.9L118.34-7.8 118.44 0 114.74 0 114.89-7.5 114.84-10.9 101.29-10.85 101.24-7.8 101.34 0 97.64 0 97.79-7.5 97.64-24.9 101.39-24.9 101.29-14.2 108.04-14.15 114.84-14.2 114.74-24.9 118.49-24.9ZM138.09-24.9L146.84 0 143.09 0 142.49-2.7 141.19-6.4 135.24-6.45 129.94-6.4 128.59-2.9 127.89 0 124.19 0 133.79-24.9 138.09-24.9ZM135.54-9.4L140.14-9.45 135.99-21.25 135.69-21.25 131.14-9.45 135.54-9.4ZM164.48-10.05Q167.53-5.4 171.24-0.9L171.24-0.9 171.19-0.4Q169.09 0.25 167.74 0.35L167.74 0.35 167.09-0.05Q163.28-5.8 161.34-9.1L161.34-9.1 156.63-9.05 156.63-7.8 156.73 0 153.03 0 153.19-7.5 153.03-24.9 161.53-24.95Q165.48-24.95 167.61-23.1 169.74-21.25 169.74-17.75L169.74-17.75Q169.74-15.2 168.36-13.2 166.98-11.2 164.48-10.05L164.48-10.05ZM156.73-21.9L156.69-12.15 161.38-12Q165.84-13.25 165.84-17.45L165.84-17.45Q165.84-19.65 164.53-20.75 163.23-21.85 160.59-21.95L160.59-21.95 156.73-21.9ZM191.53-24.9L191.73-24.6 191.48-21.45 186.83-21.8 184.33-21.8 184.18-7.8 184.33 0 180.58 0 180.73-7.5 180.63-21.8 178.13-21.8 173.38-21.45 173.08-21.8 173.38-24.9 191.53-24.9ZM218.68-24.9L218.53-7.8 218.63 0 214.93 0 215.08-7.5 215.03-10.9 201.48-10.85 201.43-7.8 201.53 0 197.83 0 197.98-7.5 197.83-24.9 201.58-24.9 201.48-14.2 208.23-14.15 215.03-14.2 214.93-24.9 218.68-24.9ZM254.08-3.5L254.33-3.1 254.03 0 236.03 0 236.28-9.65 236.03-32.05 254.08-32.05 254.28-31.65 253.98-28.55 246.43-28.7 240.08-28.6 239.98-18.1 245.98-18 251.28-18.15 251.58-17.8 251.23-14.7 245.63-14.8 239.93-14.75 239.88-10 240.03-3.35 246.38-3.3 254.08-3.5ZM273.17-3.15L273.37-2.8 273.12 0 259.87 0 260.02-7.5 259.87-24.9 263.62-24.9 263.47-7.8 263.57-3.15 273.17-3.15ZM287.37-3L294.02-3.2 294.32-2.9 293.97 0 278.82 0 278.97-7.5 278.82-24.9 294.07-24.9 294.32-24.6 294.02-21.7 287.72-21.9 282.52-21.85 282.47-14.3 287.42-14.25 291.77-14.4 292.02-14.05 291.72-11.1 287.12-11.25 282.47-11.2 282.42-7.8 282.47-3.05 287.37-3ZM309.47-25.15Q313.62-25.15 316.67-23.4L316.67-23.4 315.97-19.95 315.52-19.8Q314.27-20.85 312.62-21.45 310.97-22.05 309.07-22.05L309.07-22.05Q305.37-22.05 303.42-19.68 301.47-17.3 301.47-12.6L301.47-12.6Q301.47-7.85 303.42-5.35 305.37-2.85 309.07-2.85L309.07-2.85Q310.87-2.85 312.69-3.48 314.52-4.1 315.97-5.15L315.97-5.15 316.42-5 316.07-1.55Q312.67 0.3 308.92 0.3L308.92 0.3Q303.42 0.3 300.47-2.98 297.52-6.25 297.52-12.3L297.52-12.3Q297.52-18.45 300.64-21.8 303.77-25.15 309.47-25.15L309.47-25.15ZM338.37-24.9L338.57-24.6 338.32-21.45 333.67-21.8 331.17-21.8 331.02-7.8 331.17 0 327.42 0 327.57-7.5 327.47-21.8 324.97-21.8 320.22-21.45 319.92-21.8 320.22-24.9 338.37-24.9ZM356.11-10.05Q359.16-5.4 362.86-0.9L362.86-0.9 362.81-0.4Q360.71 0.25 359.36 0.35L359.36 0.35 358.71-0.05Q354.91-5.8 352.96-9.1L352.96-9.1 348.26-9.05 348.26-7.8 348.36 0 344.66 0 344.81-7.5 344.66-24.9 353.16-24.95Q357.11-24.95 359.24-23.1 361.36-21.25 361.36-17.75L361.36-17.75Q361.36-15.2 359.99-13.2 358.61-11.2 356.11-10.05L356.11-10.05ZM348.36-21.9L348.31-12.15 353.01-12Q357.46-13.25 357.46-17.45L357.46-17.45Q357.46-19.65 356.16-20.75 354.86-21.85 352.21-21.95L352.21-21.95 348.36-21.9ZM373.21-24.9L373.06-7.8 373.16 0 369.46 0 369.61-7.5 369.46-24.9 373.21-24.9ZM391.26-25.15Q395.41-25.15 398.46-23.4L398.46-23.4 397.76-19.95 397.31-19.8Q396.06-20.85 394.41-21.45 392.76-22.05 390.86-22.05L390.86-22.05Q387.16-22.05 385.21-19.68 383.26-17.3 383.26-12.6L383.26-12.6Q383.26-7.85 385.21-5.35 387.16-2.85 390.86-2.85L390.86-2.85Q392.66-2.85 394.48-3.48 396.31-4.1 397.76-5.15L397.76-5.15 398.21-5 397.86-1.55Q394.46 0.3 390.71 0.3L390.71 0.3Q385.21 0.3 382.26-2.98 379.31-6.25 379.31-12.3L379.31-12.3Q379.31-18.45 382.43-21.8 385.56-25.15 391.26-25.15L391.26-25.15ZM415.26-24.9L424.01 0 420.26 0 419.66-2.7 418.36-6.4 412.41-6.45 407.11-6.4 405.76-2.9 405.06 0 401.36 0 410.96-24.9 415.26-24.9ZM412.71-9.4L417.31-9.45 413.16-21.25 412.86-21.25 408.31-9.45 412.71-9.4ZM443.4-3.15L443.6-2.8 443.35 0 430.1 0 430.25-7.5 430.1-24.9 433.85-24.9 433.7-7.8 433.8-3.15 443.4-3.15ZM456.4-25.15Q459.45-25.15 462.5-23.95L462.5-23.95 461.85-20.25 461.25-20.1Q459.85-21.2 458.6-21.73 457.35-22.25 456-22.25L456-22.25Q453.85-22.25 452.6-21.13 451.35-20 451.35-18.55L451.35-18.55Q451.35-17.1 452.58-16.2 453.8-15.3 456.35-14.2L456.35-14.2Q458.6-13.2 459.93-12.4 461.25-11.6 462.23-10.28 463.2-8.95 463.2-7.05L463.2-7.05Q463.2-5.1 462.15-3.43 461.1-1.75 459.08-0.73 457.05 0.3 454.25 0.3L454.25 0.3Q452.5 0.3 450.58-0.13 448.65-0.55 447-1.4L447-1.4 447.45-5.35 447.95-5.55Q449.35-4.15 451.23-3.38 453.1-2.6 454.7-2.6L454.7-2.6Q456.8-2.6 458.15-3.73 459.5-4.85 459.5-6.45L459.5-6.45Q459.5-7.95 458.28-8.85 457.05-9.75 454.45-10.95L454.45-10.95Q452.3-11.9 450.93-12.7 449.55-13.5 448.6-14.83 447.65-16.15 447.65-18.05L447.65-18.05Q447.65-20.05 448.73-21.65 449.8-23.25 451.78-24.2 453.75-25.15 456.4-25.15L456.4-25.15Z" opacity="1" transform="matrix(1,0,0,1,0,0)" fill="white" class="slogan-text-1" id="SvgjsPath4696"></path></svg></g></svg></g></svg></g></svg></g><g></g></svg></g><defs><mask></mask></defs><mask><g id="SvgjsG4695"><svg viewBox="0 0 187.40109867042543 80.02835843617983" height="80.02835843617983" width="187.40109867042543"><g><svg viewBox="0 0 187.40109867042543 80.02835843617983" height="80.02835843617983" width="187.40109867042543"><g><svg viewBox="0 0 187.40109867042543 80.02835843617983" height="80.02835843617983" width="187.40109867042543"><g id="SvgjsG4694"><svg viewBox="0 0 187.40109867042543 80.02835843617983" height="80.02835843617983" width="187.40109867042543" id="SvgjsSvg4693"><g><svg viewBox="0 0 187.40109867042543 54.009725090706105" height="54.009725090706105" width="187.40109867042543"><g><svg><g></g><g></g></svg></g><g><svg><g><svg></svg></g><g></g></svg></g><g id="SvgjsG4692"><svg viewBox="0 0 187.40109867042543 54.009725090706105" height="54.009725090706105" width="187.40109867042543"><g transform="matrix(1,0,0,1,0,0)"><svg width="83.96469867042545" viewBox="2.05 -35.35 55.5 35.7" height="54.009725090706105" data-palette-color="url(#98992569-ead7-4fb4-ae26-0e1f07b347c1)"><g class="wordmark-text-0" data-fill-palette-color="primary"><path d="M2.05-8.15L8.3-9.9Q8.55-8.5 9.4-7.45 10.25-6.4 11.63-5.83 13-5.25 14.8-5.25L14.8-5.25Q17.75-5.25 19.2-6.58 20.65-7.9 20.65-9.8L20.65-9.8Q20.65-11.3 19.75-12.3 18.85-13.3 17.23-14 15.6-14.7 13.45-15.35L13.45-15.35Q11.45-15.95 9.47-16.65 7.5-17.35 5.93-18.4 4.35-19.45 3.43-21.13 2.5-22.8 2.5-25.35L2.5-25.35Q2.5-28.55 4.08-30.8 5.65-33.05 8.4-34.2 11.15-35.35 14.75-35.35L14.75-35.35Q17.8-35.35 20.25-34.48 22.7-33.6 24.38-31.93 26.05-30.25 26.85-27.8L26.85-27.8 20.6-26.1Q20.35-27.2 19.5-28 18.65-28.8 17.43-29.28 16.2-29.75 14.85-29.75L14.85-29.75Q13.35-29.8 12.1-29.3 10.85-28.8 10.1-27.85 9.35-26.9 9.35-25.65L9.35-25.65Q9.35-24.25 10.2-23.43 11.05-22.6 12.45-22.03 13.85-21.45 15.6-20.9L15.6-20.9Q17.65-20.3 19.78-19.53 21.9-18.75 23.65-17.57 25.4-16.4 26.48-14.6 27.55-12.8 27.55-10.05L27.55-10.05Q27.55-7.15 26.18-4.8 24.8-2.45 22.05-1.05 19.3 0.35 15.15 0.35L15.15 0.35Q11.75 0.35 8.97-0.65 6.2-1.65 4.4-3.58 2.6-5.5 2.05-8.15L2.05-8.15ZM57.55-35L57.55-29.35 39.7-29.35 39.7-20.45 53.05-20.45 53.05-15 39.7-15 39.7-5.65 57.55-5.65 57.55 0 32.95 0 32.95-35 57.55-35Z" fill="black"></path></g></svg></g><g><svg xmlns="http://www.w3.org/2000/svg" xmlns:xlink="http://www.w3.org/1999/xlink" version="1.1" x="97.60209867042545" y="0" viewBox="5.2 23.125 89.575 53.875" style="enable-background:new 0 0 100 100;" xml:space="preserve" height="54.009725090706105" width="89.79899999999999" class="icon-dxe-0" data-fill-palette-color="accent" id="SvgjsSvg4691"><path d="M82.7 35.1C88 40.6 87.8 49.3 82.3 54.6 77 59.7 68.6 59.7 63.3 54.6L57.6 60.3C66.1 68.8 79.9 68.8 88.4 60.3S96.9 38 88.4 29.5 66.1 21 57.6 29.5L63.3 35.2C68.7 29.7 77.4 29.7 82.7 35.1" fill="black"></path><path d="M28.1 74.7C28.8 76.1 30.2 77 31.7 77H32C33.6 76.9 35 75.8 35.5 74.2L46.4 39.9 51.1 46.9C51.8 48 53.1 48.7 54.4 48.7H75V40.7H56.6L48.5 28.5C47.3 26.7 44.8 26.2 43 27.4 42.2 27.9 41.7 28.7 41.4 29.5L31 62.1 21.9 43C21.2 41.6 19.8 40.7 18.3 40.7H5.2V48.7H15.7z" fill="black"></path></svg></g></svg></g></svg></g><g transform="matrix(1,0,0,1,0,66.76012495121964)"><svg viewBox="0 0 187.40109867042543 13.26823348496019" height="13.26823348496019" width="187.40109867042543"><g transform="matrix(1,0,0,1,0,0)"><svg width="187.40109867042543" viewBox="2.1 -32.3 461.09999999999997 32.65" height="13.26823348496019" data-palette-color="url(#4530a2d5-1c2b-40ab-a27e-abf2ac286075)"><path d="M13.35-32.3Q16.8-32.3 20.5-30.8L20.5-30.8 19.85-26.95 19.15-26.75Q17.7-27.85 16.07-28.45 14.45-29.05 12.85-29.05L12.85-29.05Q11-29.05 9.63-28.3 8.25-27.55 7.53-26.35 6.8-25.15 6.8-23.85L6.8-23.85Q6.8-22.5 7.63-21.48 8.45-20.45 9.7-19.7 10.95-18.95 13.1-17.9L13.1-17.9Q15.8-16.65 17.45-15.58 19.1-14.5 20.28-12.85 21.45-11.2 21.45-8.85L21.45-8.85Q21.45-6.35 20.1-4.25 18.75-2.15 16.3-0.9 13.85 0.35 10.7 0.35L10.7 0.35Q8.6 0.35 6.33-0.23 4.05-0.8 2.1-1.9L2.1-1.9 2.6-6 3.15-6.25Q4.9-4.55 7.03-3.73 9.15-2.9 11.1-2.9L11.1-2.9Q13-2.9 14.48-3.65 15.95-4.4 16.73-5.65 17.5-6.9 17.5-8.3L17.5-8.3Q17.5-10.4 15.9-11.68 14.3-12.95 11.05-14.45L11.05-14.45Q8.4-15.75 6.8-16.78 5.2-17.8 4.05-19.43 2.9-21.05 2.9-23.4L2.9-23.4Q2.9-25.85 4.23-27.9 5.55-29.95 7.93-31.13 10.3-32.3 13.35-32.3L13.35-32.3ZM31.85-24.9L31.7-7.8 31.8 0 28.1 0 28.25-7.5 28.1-24.9 31.85-24.9ZM50.8-25.1Q56.5-25.1 59.52-22.05 62.55-19 62.55-13.3L62.55-13.3Q62.55-6.75 59.25-3.25 55.95 0.25 49.8 0.25L49.8 0.25Q48.05 0.25 45.62 0.18 43.2 0.1 41.05 0L41.05 0 41.2-7.5 41.05-24.9 50.8-25.1ZM50.4-2.8Q54.4-2.8 56.57-5.23 58.75-7.65 58.75-12.55L58.75-12.55Q58.75-17.35 56.7-19.65 54.65-21.95 50.5-21.95L50.5-21.95Q48.05-21.95 44.75-21.75L44.75-21.75 44.65-7.8 44.7-3.1Q46.15-3 47.75-2.9 49.34-2.8 50.4-2.8L50.4-2.8ZM79.09-25.1Q84.79-25.1 87.82-22.05 90.84-19 90.84-13.3L90.84-13.3Q90.84-6.75 87.54-3.25 84.24 0.25 78.09 0.25L78.09 0.25Q76.34 0.25 73.92 0.18 71.49 0.1 69.34 0L69.34 0 69.49-7.5 69.34-24.9 79.09-25.1ZM78.69-2.8Q82.69-2.8 84.87-5.23 87.04-7.65 87.04-12.55L87.04-12.55Q87.04-17.35 84.99-19.65 82.94-21.95 78.79-21.95L78.79-21.95Q76.34-21.95 73.04-21.75L73.04-21.75 72.94-7.8 72.99-3.1Q74.44-3 76.04-2.9 77.64-2.8 78.69-2.8L78.69-2.8ZM118.49-24.9L118.34-7.8 118.44 0 114.74 0 114.89-7.5 114.84-10.9 101.29-10.85 101.24-7.8 101.34 0 97.64 0 97.79-7.5 97.64-24.9 101.39-24.9 101.29-14.2 108.04-14.15 114.84-14.2 114.74-24.9 118.49-24.9ZM138.09-24.9L146.84 0 143.09 0 142.49-2.7 141.19-6.4 135.24-6.45 129.94-6.4 128.59-2.9 127.89 0 124.19 0 133.79-24.9 138.09-24.9ZM135.54-9.4L140.14-9.45 135.99-21.25 135.69-21.25 131.14-9.45 135.54-9.4ZM164.48-10.05Q167.53-5.4 171.24-0.9L171.24-0.9 171.19-0.4Q169.09 0.25 167.74 0.35L167.74 0.35 167.09-0.05Q163.28-5.8 161.34-9.1L161.34-9.1 156.63-9.05 156.63-7.8 156.73 0 153.03 0 153.19-7.5 153.03-24.9 161.53-24.95Q165.48-24.95 167.61-23.1 169.74-21.25 169.74-17.75L169.74-17.75Q169.74-15.2 168.36-13.2 166.98-11.2 164.48-10.05L164.48-10.05ZM156.73-21.9L156.69-12.15 161.38-12Q165.84-13.25 165.84-17.45L165.84-17.45Q165.84-19.65 164.53-20.75 163.23-21.85 160.59-21.95L160.59-21.95 156.73-21.9ZM191.53-24.9L191.73-24.6 191.48-21.45 186.83-21.8 184.33-21.8 184.18-7.8 184.33 0 180.58 0 180.73-7.5 180.63-21.8 178.13-21.8 173.38-21.45 173.08-21.8 173.38-24.9 191.53-24.9ZM218.68-24.9L218.53-7.8 218.63 0 214.93 0 215.08-7.5 215.03-10.9 201.48-10.85 201.43-7.8 201.53 0 197.83 0 197.98-7.5 197.83-24.9 201.58-24.9 201.48-14.2 208.23-14.15 215.03-14.2 214.93-24.9 218.68-24.9ZM254.08-3.5L254.33-3.1 254.03 0 236.03 0 236.28-9.65 236.03-32.05 254.08-32.05 254.28-31.65 253.98-28.55 246.43-28.7 240.08-28.6 239.98-18.1 245.98-18 251.28-18.15 251.58-17.8 251.23-14.7 245.63-14.8 239.93-14.75 239.88-10 240.03-3.35 246.38-3.3 254.08-3.5ZM273.17-3.15L273.37-2.8 273.12 0 259.87 0 260.02-7.5 259.87-24.9 263.62-24.9 263.47-7.8 263.57-3.15 273.17-3.15ZM287.37-3L294.02-3.2 294.32-2.9 293.97 0 278.82 0 278.97-7.5 278.82-24.9 294.07-24.9 294.32-24.6 294.02-21.7 287.72-21.9 282.52-21.85 282.47-14.3 287.42-14.25 291.77-14.4 292.02-14.05 291.72-11.1 287.12-11.25 282.47-11.2 282.42-7.8 282.47-3.05 287.37-3ZM309.47-25.15Q313.62-25.15 316.67-23.4L316.67-23.4 315.97-19.95 315.52-19.8Q314.27-20.85 312.62-21.45 310.97-22.05 309.07-22.05L309.07-22.05Q305.37-22.05 303.42-19.68 301.47-17.3 301.47-12.6L301.47-12.6Q301.47-7.85 303.42-5.35 305.37-2.85 309.07-2.85L309.07-2.85Q310.87-2.85 312.69-3.48 314.52-4.1 315.97-5.15L315.97-5.15 316.42-5 316.07-1.55Q312.67 0.3 308.92 0.3L308.92 0.3Q303.42 0.3 300.47-2.98 297.52-6.25 297.52-12.3L297.52-12.3Q297.52-18.45 300.64-21.8 303.77-25.15 309.47-25.15L309.47-25.15ZM338.37-24.9L338.57-24.6 338.32-21.45 333.67-21.8 331.17-21.8 331.02-7.8 331.17 0 327.42 0 327.57-7.5 327.47-21.8 324.97-21.8 320.22-21.45 319.92-21.8 320.22-24.9 338.37-24.9ZM356.11-10.05Q359.16-5.4 362.86-0.9L362.86-0.9 362.81-0.4Q360.71 0.25 359.36 0.35L359.36 0.35 358.71-0.05Q354.91-5.8 352.96-9.1L352.96-9.1 348.26-9.05 348.26-7.8 348.36 0 344.66 0 344.81-7.5 344.66-24.9 353.16-24.95Q357.11-24.95 359.24-23.1 361.36-21.25 361.36-17.75L361.36-17.75Q361.36-15.2 359.99-13.2 358.61-11.2 356.11-10.05L356.11-10.05ZM348.36-21.9L348.31-12.15 353.01-12Q357.46-13.25 357.46-17.45L357.46-17.45Q357.46-19.65 356.16-20.75 354.86-21.85 352.21-21.95L352.21-21.95 348.36-21.9ZM373.21-24.9L373.06-7.8 373.16 0 369.46 0 369.61-7.5 369.46-24.9 373.21-24.9ZM391.26-25.15Q395.41-25.15 398.46-23.4L398.46-23.4 397.76-19.95 397.31-19.8Q396.06-20.85 394.41-21.45 392.76-22.05 390.86-22.05L390.86-22.05Q387.16-22.05 385.21-19.68 383.26-17.3 383.26-12.6L383.26-12.6Q383.26-7.85 385.21-5.35 387.16-2.85 390.86-2.85L390.86-2.85Q392.66-2.85 394.48-3.48 396.31-4.1 397.76-5.15L397.76-5.15 398.21-5 397.86-1.55Q394.46 0.3 390.71 0.3L390.71 0.3Q385.21 0.3 382.26-2.98 379.31-6.25 379.31-12.3L379.31-12.3Q379.31-18.45 382.43-21.8 385.56-25.15 391.26-25.15L391.26-25.15ZM415.26-24.9L424.01 0 420.26 0 419.66-2.7 418.36-6.4 412.41-6.45 407.11-6.4 405.76-2.9 405.06 0 401.36 0 410.96-24.9 415.26-24.9ZM412.71-9.4L417.31-9.45 413.16-21.25 412.86-21.25 408.31-9.45 412.71-9.4ZM443.4-3.15L443.6-2.8 443.35 0 430.1 0 430.25-7.5 430.1-24.9 433.85-24.9 433.7-7.8 433.8-3.15 443.4-3.15ZM456.4-25.15Q459.45-25.15 462.5-23.95L462.5-23.95 461.85-20.25 461.25-20.1Q459.85-21.2 458.6-21.73 457.35-22.25 456-22.25L456-22.25Q453.85-22.25 452.6-21.13 451.35-20 451.35-18.55L451.35-18.55Q451.35-17.1 452.58-16.2 453.8-15.3 456.35-14.2L456.35-14.2Q458.6-13.2 459.93-12.4 461.25-11.6 462.23-10.28 463.2-8.95 463.2-7.05L463.2-7.05Q463.2-5.1 462.15-3.43 461.1-1.75 459.08-0.73 457.05 0.3 454.25 0.3L454.25 0.3Q452.5 0.3 450.58-0.13 448.65-0.55 447-1.4L447-1.4 447.45-5.35 447.95-5.55Q449.35-4.15 451.23-3.38 453.1-2.6 454.7-2.6L454.7-2.6Q456.8-2.6 458.15-3.73 459.5-4.85 459.5-6.45L459.5-6.45Q459.5-7.95 458.28-8.85 457.05-9.75 454.45-10.95L454.45-10.95Q452.3-11.9 450.93-12.7 449.55-13.5 448.6-14.83 447.65-16.15 447.65-18.05L447.65-18.05Q447.65-20.05 448.73-21.65 449.8-23.25 451.78-24.2 453.75-25.15 456.4-25.15L456.4-25.15Z" opacity="1" transform="matrix(1,0,0,1,0,0)" fill="black" class="slogan-text-1" id="SvgjsPath4690"></path></svg></g></svg></g></svg></g></svg></g><g></g></svg></g><defs><mask></mask></defs></svg><rect width="187.40109867042543" height="80.02835843617983" fill="black" stroke="none" visibility="hidden"></rect></g></mask></svg><rect width="187.40109867042543" height="80.02835843617983" fill="black" stroke="none" visibility="hidden"></rect></g></mask><linearGradient x1="0.054" x2="0.941" y1="0.5" y2="0.5" id="4530a2d5-1c2b-40ab-a27e-abf2ac286075"><stop stop-color="#0f3054" offset="0"></stop><stop stop-color="#3b8dcb" offset="0.498"></stop><stop stop-color="#0f3054" offset="1"></stop></linearGradient><rect width="187.40109867042543" height="80.02835843617983" fill="url(#4530a2d5-1c2b-40ab-a27e-abf2ac286075)" mask="url(#5ffc760f-93eb-4404-9251-bc00018f1131)" data-fill-palette-color="secondary"></rect></svg><rect width="187.40109867042543" height="80.02835843617983" fill="none" stroke="none" visibility="hidden"></rect></g></svg></g></svg>